<svg id="visual" viewBox="0 0 960 540" width="960" height="540" xmlns="http://www.w3.org/2000/svg"
 xmlns:xlink="http://www.w3.org/1999/xlink" version="1.1"><rect x="0" y="0" width="960" height="540" fill="#333333"></rect>
 <path d="M272 540L294 525C316 510 360 480 364.2 450C368.3 420 332.7 390 328 360C323.3 330 349.7 300 353.7 270C357.7 240 339.3 210 372.2 180C405 150 489 120 512.2 90C535.3 60 497.7 30 478.8 15L460 0L960 0L960 15C960 30 960 60 960 90C960 120 960 150 960 180C960 210 960 240 960 270C960 300 960 330 960 360C960 390 960 420 960 450C960 480 960 510 960 525L960 540Z" fill="#69edfa"></path>
 <path d="M413 540L447.7 525C482.3 510 551.7 480 580 450C608.3 420 595.7 390 588.8 360C582 330 581 300 569.5 270C558 240 536 210 541.3 180C546.7 150 579.3 120 570.7 90C562 60 512 30 487 15L462 0L960 0L960 15C960 30 960 60 960 90C960 120 960 150 960 180C960 210 960 240 960 270C960 300 960 330 960 360C960 390 960 420 960 450C960 480 960 510 960 525L960 540Z" fill="#47afc7"></path>
 <path d="M573 540L592.3 525C611.7 510 650.3 480 641 450C631.7 420 574.3 390 560.8 360C547.3 330 577.7 300 605 270C632.3 240 656.7 210 679.3 180C702 150 723 120 722.3 90C721.7 60 699.3 30 688.2 15L677 0L960 0L960 15C960 30 960 60 960 90C960 120 960 150 960 180C960 210 960 240 960 270C960 300 960 330 960 360C960 390 960 420 960 450C960 480 960 510 960 525L960 540Z" fill="#2e7590"></path>
 <path d="M724 540L709.3 525C694.7 510 665.3 480 654.2 450C643 420 650 390 670.7 360C691.3 330 725.7 300 756 270C786.3 240 812.7 210 820.5 180C828.3 150 817.7 120 810.5 90C803.3 60 799.7 30 797.8 15L796 0L960 0L960 15C960 30 960 60 960 90C960 120 960 150 960 180C960 210 960 240 960 270C960 300 960 330 960 360C960 390 960 420 960 450C960 480 960 510 960 525L960 540Z" fill="#184058"></path>
 <path d="M852 540L858.5 525C865 510 878 480 868.8 450C859.7 420 828.3 390 820.2 360C812 330 827 300 847.3 270C867.7 240 893.3 210 906.5 180C919.7 150 920.3 120 907.5 90C894.7 60 868.3 30 855.2 15L842 0L960 0L960 15C960 30 960 60 960 90C960 120 960 150 960 180C960 210 960 240 960 270C960 300 960 330 960 360C960 390 960 420 960 450C960 480 960 510 960 525L960 540Z" fill="#001122"></path></svg>