<svg id="visual" viewBox="0 0 3840 2160" width="3840" height="2160" xmlns="http://www.w3.org/2000/svg" xmlns:xlink="http://www.w3.org/1999/xlink" version="1.1"><rect x="0" y="0" width="3840" height="2160" fill="#001122"></rect><path d="M998 2160L1046.5 2100C1095 2040 1192 1920 1229.5 1800C1267 1680 1245 1560 1405.8 1440C1566.7 1320 1910.3 1200 2022 1080C2133.7 960 2013.3 840 1862.7 720C1712 600 1531 480 1642.2 360C1753.3 240 2156.7 120 2358.3 60L2560 0L3840 0L3840 60C3840 120 3840 240 3840 360C3840 480 3840 600 3840 720C3840 840 3840 960 3840 1080C3840 1200 3840 1320 3840 1440C3840 1560 3840 1680 3840 1800C3840 1920 3840 2040 3840 2100L3840 2160Z" fill="#fa7268"></path><path d="M2151 2160L2197.5 2100C2244 2040 2337 1920 2370.2 1800C2403.3 1680 2376.7 1560 2386.3 1440C2396 1320 2442 1200 2428 1080C2414 960 2340 840 2301.3 720C2262.7 600 2259.3 480 2365.2 360C2471 240 2686 120 2793.5 60L2901 0L3840 0L3840 60C3840 120 3840 240 3840 360C3840 480 3840 600 3840 720C3840 840 3840 960 3840 1080C3840 1200 3840 1320 3840 1440C3840 1560 3840 1680 3840 1800C3840 1920 3840 2040 3840 2100L3840 2160Z" fill="#eb5967"></path><path d="M2322 2160L2289.8 2100C2257.7 2040 2193.3 1920 2243 1800C2292.7 1680 2456.3 1560 2425.5 1440C2394.7 1320 2169.3 1200 2190.5 1080C2211.7 960 2479.3 840 2575.7 720C2672 600 2597 480 2652.8 360C2708.7 240 2895.3 120 2988.7 60L3082 0L3840 0L3840 60C3840 120 3840 240 3840 360C3840 480 3840 600 3840 720C3840 840 3840 960 3840 1080C3840 1200 3840 1320 3840 1440C3840 1560 3840 1680 3840 1800C3840 1920 3840 2040 3840 2100L3840 2160Z" fill="#da3f67"></path><path d="M3498 2160L3407.5 2100C3317 2040 3136 1920 3094.5 1800C3053 1680 3151 1560 3224.2 1440C3297.3 1320 3345.7 1200 3339.3 1080C3333 960 3272 840 3228.2 720C3184.3 600 3157.7 480 3070.7 360C2983.7 240 2836.3 120 2762.7 60L2689 0L3840 0L3840 60C3840 120 3840 240 3840 360C3840 480 3840 600 3840 720C3840 840 3840 960 3840 1080C3840 1200 3840 1320 3840 1440C3840 1560 3840 1680 3840 1800C3840 1920 3840 2040 3840 2100L3840 2160Z" fill="#c62368"></path></svg>