<svg id="visual" viewBox="0 0 3840 2160" width="3840" height="2160" xmlns="http://www.w3.org/2000/svg" xmlns:xlink="http://www.w3.org/1999/xlink" version="1.1"><rect x="0" y="0" width="3840" height="2160" fill="#2a2a2a"></rect><path d="M1549 2160L1705 2108.5C1861 2057 2173 1954 2244.3 1851.2C2315.7 1748.3 2146.3 1645.7 2074.8 1542.8C2003.3 1440 2029.7 1337 2110.2 1234.2C2190.7 1131.3 2325.3 1028.7 2360 925.8C2394.7 823 2329.3 720 2234.8 617.2C2140.3 514.3 2016.7 411.7 1936.3 308.8C1856 206 1819 103 1800.5 51.5L1782 0L3840 0L3840 51.5C3840 103 3840 206 3840 308.8C3840 411.7 3840 514.3 3840 617.2C3840 720 3840 823 3840 925.8C3840 1028.7 3840 1131.3 3840 1234.2C3840 1337 3840 1440 3840 1542.8C3840 1645.7 3840 1748.3 3840 1851.2C3840 1954 3840 2057 3840 2108.5L3840 2160Z" fill="#fa7268"></path><path d="M1899 2160L1944.5 2108.5C1990 2057 2081 1954 2143.2 1851.2C2205.3 1748.3 2238.7 1645.7 2263.5 1542.8C2288.3 1440 2304.7 1337 2272.3 1234.2C2240 1131.3 2159 1028.7 2239 925.8C2319 823 2560 720 2632 617.2C2704 514.3 2607 411.7 2518.5 308.8C2430 206 2350 103 2310 51.5L2270 0L3840 0L3840 51.5C3840 103 3840 206 3840 308.8C3840 411.7 3840 514.3 3840 617.2C3840 720 3840 823 3840 925.8C3840 1028.7 3840 1131.3 3840 1234.2C3840 1337 3840 1440 3840 1542.8C3840 1645.7 3840 1748.3 3840 1851.2C3840 1954 3840 2057 3840 2108.5L3840 2160Z" fill="#ff7c51"></path><path d="M2806 2160L2732.3 2108.5C2658.7 2057 2511.3 1954 2472.7 1851.2C2434 1748.3 2504 1645.7 2606.8 1542.8C2709.7 1440 2845.3 1337 2877 1234.2C2908.7 1131.3 2836.3 1028.7 2833.3 925.8C2830.3 823 2896.7 720 2925.3 617.2C2954 514.3 2945 411.7 2905.2 308.8C2865.3 206 2794.7 103 2759.3 51.5L2724 0L3840 0L3840 51.5C3840 103 3840 206 3840 308.8C3840 411.7 3840 514.3 3840 617.2C3840 720 3840 823 3840 925.8C3840 1028.7 3840 1131.3 3840 1234.2C3840 1337 3840 1440 3840 1542.8C3840 1645.7 3840 1748.3 3840 1851.2C3840 1954 3840 2057 3840 2108.5L3840 2160Z" fill="#ff8936"></path><path d="M3325 2160L3293.3 2108.5C3261.7 2057 3198.3 1954 3141.8 1851.2C3085.3 1748.3 3035.7 1645.7 3049.8 1542.8C3064 1440 3142 1337 3140.7 1234.2C3139.3 1131.3 3058.7 1028.7 3049.3 925.8C3040 823 3102 720 3143.2 617.2C3184.3 514.3 3204.7 411.7 3193.8 308.8C3183 206 3141 103 3120 51.5L3099 0L3840 0L3840 51.5C3840 103 3840 206 3840 308.8C3840 411.7 3840 514.3 3840 617.2C3840 720 3840 823 3840 925.8C3840 1028.7 3840 1131.3 3840 1234.2C3840 1337 3840 1440 3840 1542.8C3840 1645.7 3840 1748.3 3840 1851.2C3840 1954 3840 2057 3840 2108.5L3840 2160Z" fill="#ff9b00"></path></svg>