<svg id="visual" viewBox="0 0 3840 2160" width="3840" height="2160" xmlns="http://www.w3.org/2000/svg" xmlns:xlink="http://www.w3.org/1999/xlink" version="1.1"><rect x="0" y="0" width="3840" height="2160" fill="#2a2a2a"></rect><path d="M1789 2160L1772.2 2070C1755.3 1980 1721.7 1800 1667 1620C1612.3 1440 1536.7 1260 1593.5 1080C1650.3 900 1839.7 720 1962.2 540C2084.7 360 2140.3 180 2168.2 90L2196 0L3840 0L3840 90C3840 180 3840 360 3840 540C3840 720 3840 900 3840 1080C3840 1260 3840 1440 3840 1620C3840 1800 3840 1980 3840 2070L3840 2160Z" fill="#fa7268"></path><path d="M2775 2160L2681.8 2070C2588.7 1980 2402.3 1800 2343.2 1620C2284 1440 2352 1260 2408.2 1080C2464.3 900 2508.7 720 2426.7 540C2344.7 360 2136.3 180 2032.2 90L1928 0L3840 0L3840 90C3840 180 3840 360 3840 540C3840 720 3840 900 3840 1080C3840 1260 3840 1440 3840 1620C3840 1800 3840 1980 3840 2070L3840 2160Z" fill="#ff7c51"></path><path d="M3003 2160L2987.5 2070C2972 1980 2941 1800 2938 1620C2935 1440 2960 1260 2885 1080C2810 900 2635 720 2549.3 540C2463.7 360 2467.3 180 2469.2 90L2471 0L3840 0L3840 90C3840 180 3840 360 3840 540C3840 720 3840 900 3840 1080C3840 1260 3840 1440 3840 1620C3840 1800 3840 1980 3840 2070L3840 2160Z" fill="#ff8936"></path><path d="M3294 2160L3294.7 2070C3295.3 1980 3296.7 1800 3254.3 1620C3212 1440 3126 1260 3090.8 1080C3055.7 900 3071.3 720 3108.8 540C3146.3 360 3205.7 180 3235.3 90L3265 0L3840 0L3840 90C3840 180 3840 360 3840 540C3840 720 3840 900 3840 1080C3840 1260 3840 1440 3840 1620C3840 1800 3840 1980 3840 2070L3840 2160Z" fill="#ff9b00"></path></svg>