<?xml version="1.0" encoding="utf-8"?>
<!-- Generator: Adobe Illustrator 25.0.0, SVG Export Plug-In . SVG Version: 6.00 Build 0)  -->
<svg version="1.1" xmlns="http://www.w3.org/2000/svg" xmlns:xlink="http://www.w3.org/1999/xlink" x="0px" y="0px"
	 viewBox="0 0 500 500" style="enable-background:new 0 0 500 500;" xml:space="preserve">
<style type="text/css">
	.st0{fill:#231B3C;}
	.st1{fill:#5240AB;}
	.st2{fill:url(#SVGID_1_);}
	.st3{fill:url(#SVGID_2_);}
	.st4{fill:url(#SVGID_3_);}
	.st5{fill:url(#SVGID_4_);}
	.st6{fill:url(#SVGID_5_);}
	.st7{fill:url(#SVGID_6_);}
	.st8{fill:url(#SVGID_7_);}
	.st9{fill:url(#SVGID_8_);}
	.st10{fill:url(#SVGID_9_);}
	.st11{fill:none;}
</style>
<g id="BACKGROUND">
	<rect class="st0" width="500" height="500"/>
</g>
<g id="OBJECTS">
	<g>
		<g>
			<path class="st1" d="M313.7,203.2l-45.7-26.4c-11.1-6.4-24.8-6.4-35.9,0l-45.7,26.4c-11.1,6.4-17.9,18.3-17.9,31.1V287
				c0,12.8,6.8,24.7,17.9,31.1l45.7,26.4c11.1,6.4,24.8,6.4,35.9,0l45.7-26.4c0.4-0.2,0.7-0.4,1.1-0.7c10.5-6.5,16.8-18,16.8-30.4
				v-52.8C331.6,221.4,324.8,209.6,313.7,203.2z M273.3,250.2c5.7,5.7,5.7,15,0,20.7l-13,13c-5.7,5.7-15,5.7-20.7,0l-13-13
				c-5.7-5.7-5.7-15,0-20.7l13-13c5.7-5.7,15-5.7,20.7,0L273.3,250.2z"/>
			<linearGradient id="SVGID_1_" gradientUnits="userSpaceOnUse" x1="159.5304" y1="306.5057" x2="296.5612" y2="169.4749">
				<stop  offset="9.575450e-02" style="stop-color:#8155E5"/>
				<stop  offset="0.2038" style="stop-color:#7860E7"/>
				<stop  offset="0.3929" style="stop-color:#5F7DEC"/>
				<stop  offset="0.6409" style="stop-color:#36ACF4"/>
				<stop  offset="0.927" style="stop-color:#00EBFF"/>
			</linearGradient>
			<path class="st2" d="M232.3,209.2l28.1,28.1c-5.7-5.7-15-5.7-20.7,0l-13,13c-5.7,5.7-5.7,15,0,20.7l13,13c5.7,5.7,15,5.7,20.7,0
				L232.3,312c-12.2,12.2-31,14.7-45.9,6c-11.1-6.4-17.9-18.3-17.9-31.1v-52.8c0-12.8,6.8-24.7,17.9-31.1
				C201.3,194.5,220.1,197,232.3,209.2z"/>
			<linearGradient id="SVGID_2_" gradientUnits="userSpaceOnUse" x1="159.5304" y1="306.5057" x2="296.5612" y2="169.4749">
				<stop  offset="9.575450e-02" style="stop-color:#8155E5"/>
				<stop  offset="0.2038" style="stop-color:#7860E7"/>
				<stop  offset="0.3929" style="stop-color:#5F7DEC"/>
				<stop  offset="0.6409" style="stop-color:#36ACF4"/>
				<stop  offset="0.927" style="stop-color:#00EBFF"/>
			</linearGradient>
			<path class="st3" d="M232.3,209.2l28.1,28.1c-5.7-5.7-15-5.7-20.7,0l-13,13c-5.7,5.7-5.7,15,0,20.7l13,13c5.7,5.7,15,5.7,20.7,0
				L232.3,312c-12.2,12.2-31,14.7-45.9,6c-11.1-6.4-17.9-18.3-17.9-31.1v-52.8c0-12.8,6.8-24.7,17.9-31.1
				C201.3,194.5,220.1,197,232.3,209.2z"/>
			<linearGradient id="SVGID_3_" gradientUnits="userSpaceOnUse" x1="236.4455" y1="188.7357" x2="335.9826" y2="288.2728">
				<stop  offset="0.1534" style="stop-color:#FD2EB2"/>
				<stop  offset="0.2458" style="stop-color:#F42BB8"/>
				<stop  offset="0.3992" style="stop-color:#DA22C7"/>
				<stop  offset="0.5946" style="stop-color:#B113E0"/>
				<stop  offset="0.8052" style="stop-color:#7D00FF"/>
			</linearGradient>
			<path class="st4" d="M331.6,234.2V287c0,12.4-6.4,23.9-16.8,30.4c7.9-5.4,9-16.8,2.1-23.7l-56.5-56.4l-28.1-28.1
				c-12.2-12.2-31-14.7-45.9-6l45.7-26.4c11.1-6.4,24.8-6.4,35.9,0l45.7,26.4C324.8,209.6,331.6,221.4,331.6,234.2z"/>
			<g>
				<linearGradient id="SVGID_4_" gradientUnits="userSpaceOnUse" x1="206.3887" y1="191.2384" x2="321.7515" y2="306.6013">
					<stop  offset="2.111610e-02" style="stop-color:#FE8FD6;stop-opacity:0"/>
					<stop  offset="0.1618" style="stop-color:#FD92EB;stop-opacity:0.3424"/>
					<stop  offset="0.3015" style="stop-color:#FD94F8;stop-opacity:0.6826"/>
					<stop  offset="0.4319" style="stop-color:#FD95FC"/>
					<stop  offset="0.5225" style="stop-color:#F48EFC"/>
					<stop  offset="0.6726" style="stop-color:#DA7BFD"/>
					<stop  offset="0.8628" style="stop-color:#B15CFF"/>
					<stop  offset="0.8984" style="stop-color:#A956FF"/>
					<stop  offset="0.988" style="stop-color:#9A38FF;stop-opacity:0"/>
				</linearGradient>
				<path class="st5" d="M323.3,306.2c0.5-5.2-1.4-10.3-5.1-13.9l-56.5-56.4l-28.1-28.1c-7.5-7.6-17.6-11.7-28.3-11.7
					c-1,0-2,0-2.9,0.1v2c1-0.1,1.9-0.1,2.9-0.1c9.8,0,19.6,3.8,26.9,11.1l28.1,28.1l56.5,56.4c3.6,3.6,5,8.5,4.4,13h2
					C323.3,306.5,323.3,306.4,323.3,306.2z"/>
			</g>
			<linearGradient id="SVGID_5_" gradientUnits="userSpaceOnUse" x1="193.7792" y1="195.6822" x2="263.0883" y2="265.3037">
				<stop  offset="3.271250e-02" style="stop-color:#004EAD"/>
				<stop  offset="0.9338" style="stop-color:#3FAFEA;stop-opacity:0"/>
			</linearGradient>
			<path class="st6" d="M260.4,237.3l-28.1-28.1c-10.6-10.6-26.2-13.9-40-8.8c-0.1,0.1-0.3,0.1-0.4,0.2l0,0
				c-1.9,0.7-3.7,1.6-5.5,2.6c-1.7,1-3.3,2.1-4.8,3.4c-0.4,0.3-0.8,0.6-1.2,1c14.6-6.4,31.8-3.3,43.2,8.1l19.2,19.2
				C248.4,231.7,255.6,232.5,260.4,237.3L260.4,237.3z"/>
			<linearGradient id="SVGID_6_" gradientUnits="userSpaceOnUse" x1="213.5251" y1="354.9142" x2="311.6169" y2="256.8223">
				<stop  offset="0.1098" style="stop-color:#FD5D85"/>
				<stop  offset="0.2848" style="stop-color:#FD6A7D"/>
				<stop  offset="0.6052" style="stop-color:#FE8B68"/>
				<stop  offset="0.9954" style="stop-color:#FFBB49"/>
			</linearGradient>
			<path class="st7" d="M316.9,293.7c6.9,6.9,5.7,18.3-2.1,23.7c-0.3,0.2-0.7,0.4-1.1,0.7l-45.7,26.4c-11.1,6.4-24.8,6.4-35.9,0
				l-45.7-26.4c14.9,8.6,33.8,6.1,45.9-6l28.1-28.1l13-13c5.7-5.7,5.7-15,0-20.7L316.9,293.7z"/>
			<linearGradient id="SVGID_7_" gradientUnits="userSpaceOnUse" x1="266.9922" y1="265.5391" x2="195.4087" y2="337.1226">
				<stop  offset="0.2804" style="stop-color:#4637D2"/>
				<stop  offset="0.3952" style="stop-color:#4B3CD3;stop-opacity:0.7895"/>
				<stop  offset="0.54" style="stop-color:#594CD7;stop-opacity:0.524"/>
				<stop  offset="0.7002" style="stop-color:#7166DC;stop-opacity:0.2302"/>
				<stop  offset="0.8258" style="stop-color:#887FE2;stop-opacity:0"/>
			</linearGradient>
			<path class="st8" d="M260.4,283.9c-4.6,4.6-11.4,5.4-16.8,2.7L218.1,312c-5.6,5.6-12.5,9.1-19.9,10.5c12.1,2.3,24.9-1.4,34-10.5
				L260.4,283.9z"/>
			<linearGradient id="SVGID_8_" gradientUnits="userSpaceOnUse" x1="263.9798" y1="253.9606" x2="319.0436" y2="309.0244">
				<stop  offset="3.693080e-02" style="stop-color:#E14534"/>
				<stop  offset="0.2665" style="stop-color:#E24836;stop-opacity:0.7616"/>
				<stop  offset="0.4377" style="stop-color:#E4523C;stop-opacity:0.5839"/>
				<stop  offset="0.5899" style="stop-color:#E86245;stop-opacity:0.4258"/>
				<stop  offset="0.7312" style="stop-color:#EE7853;stop-opacity:0.2791"/>
				<stop  offset="0.8648" style="stop-color:#F59665;stop-opacity:0.1404"/>
				<stop  offset="0.9911" style="stop-color:#FDB97A;stop-opacity:9.205163e-03"/>
				<stop  offset="1" style="stop-color:#FEBC7C;stop-opacity:0"/>
			</linearGradient>
			<path class="st9" d="M273.3,250.2c4.7,4.7,5.5,11.9,2.4,17.5l34.6,34.6c4.2,4.2,5.5,10.1,4.1,15.3c0.1-0.1,0.2-0.1,0.3-0.2
				c7.9-5.4,9-16.8,2.1-23.7L273.3,250.2z"/>
			<linearGradient id="SVGID_9_" gradientUnits="userSpaceOnUse" x1="208.8242" y1="327.4987" x2="277.6057" y2="258.7172">
				<stop  offset="4.657800e-02" style="stop-color:#FE85A3;stop-opacity:0"/>
				<stop  offset="0.2968" style="stop-color:#FE85A3"/>
				<stop  offset="0.3772" style="stop-color:#FE91A0"/>
				<stop  offset="0.5239" style="stop-color:#FFB298"/>
				<stop  offset="0.6546" style="stop-color:#FFD58F"/>
				<stop  offset="1" style="stop-color:#FFD58F;stop-opacity:0"/>
			</linearGradient>
			<path class="st10" d="M279.6,259.3h-2c0.4,4.2-1,8.5-4.2,11.7l-13,13L232.3,312c-7.3,7.3-17,11.1-26.9,11.1c-1,0-1.9,0-2.9-0.1v2
				c1,0.1,1.9,0.1,2.9,0.1c10.7,0,20.8-4.2,28.3-11.7l28.1-28.1l13-13C278.3,268.8,279.9,264,279.6,259.3z"/>
		</g>
	</g>
	<rect x="163" y="450" class="st11" width="198" height="39"/>
	<rect x="162" y="445" class="st11" width="166" height="44"/>
</g>
<g id="DESIGNED_BY_FREEPIK">
</g>
</svg>
